<svg width="1592px" height="1000px"
 viewBox="0.00 0.00 758.14 476.00" xmlns="http://www.w3.org/2000/svg" xmlns:xlink="http://www.w3.org/1999/xlink">
  <g id="graph0" class="graph" transform="scale(1.0 1.0) rotate(0.0) translate(4.0 472.0)">
    <title>State Transitions</title>
    <polygon fill="white" stroke="transparent" points="-4,4 -4,-472 754.14,-472 754.14,4 -4,4"/>
    <!-- RES_CANCEL_REQUEST_RECEIVED -->
    <g id="node1" class="node">
      <title>RES_CANCEL_REQUEST_RECEIVED</title>
      <polygon fill="none" stroke="black" points="456.05,-468 213.53,-468 213.53,-432 456.05,-432 456.05,-468"/>
      <text text-anchor="middle" x="334.79" y="-445.8" font-family="arial" font-size="14.00">RES_CANCEL_REQUEST_RECEIVED</text>
    </g>
    <!-- RES_CANCEL_REQUEST_RECEIVED&#45;&gt;RES_CANCEL_REQUEST_RECEIVED -->
    <g id="edge2" class="edge link&#45;class">
      <title>RES_CANCEL_REQUEST_RECEIVED&#45;&gt;RES_CANCEL_REQUEST_RECEIVED</title>
      <g id="a_edge2">
        <a xlink:title="ISO18626StatusRequest">
          <path fill="none" stroke="purple" d="M456.18,-460.73C467.22,-458.5 474.17,-454.92 474.17,-450 474.17,-446.77 471.18,-444.12 466,-442.05"/>
          <polygon fill="purple" stroke="purple" points="466.75,-438.62 456.18,-439.27 464.85,-445.36 466.75,-438.62"/>
        </a>
      </g>
    </g>
    <!-- RES_IDLE -->
    <g id="node2" class="node">
      <title>RES_IDLE</title>
      <polygon fill="none" stroke="black" points="416.48,-396 333.1,-396 333.1,-360 416.48,-360 416.48,-396"/>
      <text text-anchor="middle" x="374.79" y="-373.8" font-family="arial" font-size="14.00">RES_IDLE</text>
    </g>
    <!-- RES_CANCEL_REQUEST_RECEIVED&#45;&gt;RES_IDLE -->
    <g id="edge8" class="edge link&#45;class">
      <title>RES_CANCEL_REQUEST_RECEIVED&#45;&gt;RES_IDLE</title>
      <g id="a_edge8">
        <a xlink:title="supplierRespondToCancel&#45;no&#45;saved">
          <path fill="none" stroke="purple" d="M338.76,-431.7C342.57,-423.56 348.01,-413.69 353.57,-404.7"/>
          <polygon fill="purple" stroke="purple" points="356.64,-406.4 359.12,-396.1 350.76,-402.61 356.64,-406.4"/>
        </a>
      </g>
    </g>
    <!-- RES_AWAIT_PICKING -->
    <g id="node3" class="node">
      <title>RES_AWAIT_PICKING</title>
      <polygon fill="none" stroke="black" points="253.07,-180 94.51,-180 94.51,-144 253.07,-144 253.07,-180"/>
      <text text-anchor="middle" x="173.79" y="-157.8" font-family="arial" font-size="14.00">RES_AWAIT_PICKING</text>
    </g>
    <!-- RES_CANCEL_REQUEST_RECEIVED&#45;&gt;RES_AWAIT_PICKING -->
    <g id="edge7" class="edge link&#45;class">
      <title>RES_CANCEL_REQUEST_RECEIVED&#45;&gt;RES_AWAIT_PICKING</title>
      <g id="a_edge7">
        <a xlink:title="supplierRespondToCancel&#45;no&#45;saved">
          <path fill="none" stroke="purple" d="M304.94,-431.88C251.02,-397.65 143.79,-324 143.79,-324 143.79,-324 143.79,-288 143.79,-288 143.79,-288 187.79,-252 187.79,-252 187.79,-252 187.79,-216 187.79,-216 187.79,-216 182.16,-203.02 177.56,-189.9"/>
          <polygon fill="purple" stroke="purple" points="180.78,-188.49 174.35,-180.06 174.12,-190.65 180.78,-188.49"/>
        </a>
      </g>
    </g>
    <!-- RES_PENDING_CONDITIONAL_ANSWER -->
    <g id="node4" class="node">
      <title>RES_PENDING_CONDITIONAL_ANSWER</title>
      <polygon fill="none" stroke="black" points="429.75,-324 161.83,-324 161.83,-288 429.75,-288 429.75,-324"/>
      <text text-anchor="middle" x="295.79" y="-301.8" font-family="arial" font-size="14.00">RES_PENDING_CONDITIONAL_ANSWER</text>
    </g>
    <!-- RES_CANCEL_REQUEST_RECEIVED&#45;&gt;RES_PENDING_CONDITIONAL_ANSWER -->
    <g id="edge6" class="edge link&#45;class">
      <title>RES_CANCEL_REQUEST_RECEIVED&#45;&gt;RES_PENDING_CONDITIONAL_ANSWER</title>
      <g id="a_edge6">
        <a xlink:title="supplierRespondToCancel&#45;no&#45;saved">
          <path fill="none" stroke="purple" d="M325.5,-431.87C316.3,-407.67 303.79,-363.21 297.85,-334.39"/>
          <polygon fill="purple" stroke="purple" points="301.22,-333.36 295.92,-324.19 294.34,-334.67 301.22,-333.36"/>
        </a>
      </g>
    </g>
    <!-- RES_NEW_AWAIT_PULL_SLIP -->
    <g id="node5" class="node">
      <title>RES_NEW_AWAIT_PULL_SLIP</title>
      <polygon fill="none" stroke="black" points="589.46,-252 380.12,-252 380.12,-216 589.46,-216 589.46,-252"/>
      <text text-anchor="middle" x="484.79" y="-229.8" font-family="arial" font-size="14.00">RES_NEW_AWAIT_PULL_SLIP</text>
    </g>
    <!-- RES_CANCEL_REQUEST_RECEIVED&#45;&gt;RES_NEW_AWAIT_PULL_SLIP -->
    <g id="edge5" class="edge link&#45;class">
      <title>RES_CANCEL_REQUEST_RECEIVED&#45;&gt;RES_NEW_AWAIT_PULL_SLIP</title>
      <g id="a_edge5">
        <a xlink:title="supplierRespondToCancel&#45;no&#45;saved">
          <path fill="none" stroke="purple" d="M363.03,-431.94C392.74,-416.45 434.79,-396 434.79,-396 434.79,-396 475.79,-324 475.79,-324 475.79,-324 475.79,-288.48 478.06,-262.32"/>
          <polygon fill="purple" stroke="purple" points="481.56,-262.47 479.13,-252.16 474.6,-261.74 481.56,-262.47"/>
        </a>
      </g>
    </g>
    <!-- RES_AWAIT_SHIP -->
    <g id="node6" class="node">
      <title>RES_AWAIT_SHIP</title>
      <polygon fill="none" stroke="black" points="133.37,-252 0.21,-252 0.21,-216 133.37,-216 133.37,-252"/>
      <text text-anchor="middle" x="66.79" y="-229.8" font-family="arial" font-size="14.00">RES_AWAIT_SHIP</text>
    </g>
    <!-- RES_CANCEL_REQUEST_RECEIVED&#45;&gt;RES_AWAIT_SHIP -->
    <g id="edge4" class="edge link&#45;class">
      <title>RES_CANCEL_REQUEST_RECEIVED&#45;&gt;RES_AWAIT_SHIP</title>
      <g id="a_edge4">
        <a xlink:title="supplierRespondToCancel&#45;no&#45;saved">
          <path fill="none" stroke="purple" d="M252.94,-431.94C182.67,-416.45 92.79,-396 92.79,-396 92.79,-396 73.74,-308.38 67.36,-262.41"/>
          <polygon fill="purple" stroke="purple" points="70.8,-261.72 66.09,-252.23 63.86,-262.59 70.8,-261.72"/>
        </a>
      </g>
    </g>
    <!-- RES_CANCELLED -->
    <g id="node7" class="node">
      <title>RES_CANCELLED</title>
      <ellipse fill="none" stroke="red" cx="663.79" cy="-378" rx="86.2" ry="18"/>
      <text text-anchor="middle" x="663.79" y="-373.8" font-family="arial" font-size="14.00">RES_CANCELLED</text>
    </g>
    <!-- RES_CANCEL_REQUEST_RECEIVED&#45;&gt;RES_CANCELLED -->
    <g id="edge1" class="edge link&#45;class">
      <title>RES_CANCEL_REQUEST_RECEIVED&#45;&gt;RES_CANCELLED</title>
      <g id="a_edge1">
        <a xlink:title="STATUS_RES_CANCEL_REQUEST_RECEIVED_ind&#45;cancelled">
          <path fill="none" stroke="red" d="M408.96,-431.97C464.1,-419.96 538.8,-404.1 593.1,-392.87"/>
          <polygon fill="red" stroke="red" points="593.9,-396.28 602.99,-390.83 592.49,-389.42 593.9,-396.28"/>
        </a>
      </g>
    </g>
    <!-- RES_CANCEL_REQUEST_RECEIVED&#45;&gt;RES_CANCELLED -->
    <g id="edge3" class="edge link&#45;class">
      <title>RES_CANCEL_REQUEST_RECEIVED&#45;&gt;RES_CANCELLED</title>
      <g id="a_edge3">
        <a xlink:title="supplierRespondToCancel">
          <path fill="none" stroke="red" d="M420.74,-431.97C476.44,-420.37 547.79,-405.18 598.78,-394.04"/>
          <polygon fill="red" stroke="red" points="599.68,-397.42 608.7,-391.86 598.18,-390.58 599.68,-397.42"/>
        </a>
      </g>
    </g>
    <!-- RES_IDLE&#45;&gt;RES_CANCEL_REQUEST_RECEIVED -->
    <g id="edge14" class="edge link&#45;class">
      <title>RES_IDLE&#45;&gt;RES_CANCEL_REQUEST_RECEIVED</title>
      <g id="a_edge14">
        <a xlink:title="ISO18626Cancel">
          <path fill="none" stroke="purple" d="M370.91,-396.1C367.13,-404.21 361.71,-414.08 356.15,-423.08"/>
          <polygon fill="purple" stroke="purple" points="353.07,-421.39 350.59,-431.7 358.95,-425.19 353.07,-421.39"/>
        </a>
      </g>
    </g>
    <!-- RES_IDLE&#45;&gt;RES_IDLE -->
    <g id="edge13" class="edge link&#45;class">
      <title>RES_IDLE&#45;&gt;RES_IDLE</title>
      <g id="a_edge13">
        <a xlink:title="ISO18626StatusRequest">
          <path fill="none" stroke="purple" d="M416.56,-391.29C426.78,-390.3 434.38,-385.88 434.38,-378 434.38,-372.96 431.26,-369.32 426.33,-367.11"/>
          <polygon fill="purple" stroke="purple" points="427.11,-363.69 416.56,-364.71 425.44,-370.49 427.11,-363.69"/>
        </a>
      </g>
    </g>
    <!-- RES_IDLE&#45;&gt;RES_PENDING_CONDITIONAL_ANSWER -->
    <g id="edge12" class="edge link&#45;class">
      <title>RES_IDLE&#45;&gt;RES_PENDING_CONDITIONAL_ANSWER</title>
      <g id="a_edge12">
        <a xlink:title="supplierConditionalSupply&#45;holding">
          <path fill="none" stroke="purple" d="M349.35,-359.7C338.7,-351.05 326.55,-340.45 316.46,-331.03"/>
          <polygon fill="purple" stroke="purple" points="318.85,-328.47 309.2,-324.1 314.02,-333.54 318.85,-328.47"/>
        </a>
      </g>
    </g>
    <!-- RES_IDLE&#45;&gt;RES_NEW_AWAIT_PULL_SLIP -->
    <g id="edge9" class="edge link&#45;class">
      <title>RES_IDLE&#45;&gt;RES_NEW_AWAIT_PULL_SLIP</title>
      <g id="a_edge9">
        <a xlink:title="respondYes">
          <path fill="none" stroke="purple" d="M394.34,-359.94C416.16,-344.45 447.79,-324 447.79,-324 447.79,-324 459.16,-287.85 469.74,-261.63"/>
          <polygon fill="purple" stroke="purple" points="473.07,-262.73 473.73,-252.16 466.62,-260.02 473.07,-262.73"/>
        </a>
      </g>
    </g>
    <!-- RES_IDLE&#45;&gt;RES_NEW_AWAIT_PULL_SLIP -->
    <g id="edge11" class="edge link&#45;class">
      <title>RES_IDLE&#45;&gt;RES_NEW_AWAIT_PULL_SLIP</title>
      <g id="a_edge11">
        <a xlink:title="supplierConditionalSupply">
          <path fill="none" stroke="purple" d="M408.03,-359.94C434.16,-344.45 465.79,-324 465.79,-324 465.79,-324 477.06,-288.17 483,-261.97"/>
          <polygon fill="purple" stroke="purple" points="486.44,-262.66 485.05,-252.16 479.58,-261.24 486.44,-262.66"/>
        </a>
      </g>
    </g>
    <!-- RES_UNFILLED -->
    <g id="node10" class="node">
      <title>RES_UNFILLED</title>
      <ellipse fill="none" stroke="red" cx="386.79" cy="-90" rx="80.61" ry="18"/>
      <text text-anchor="middle" x="386.79" y="-85.8" font-family="arial" font-size="14.00">RES_UNFILLED</text>
    </g>
    <!-- RES_IDLE&#45;&gt;RES_UNFILLED -->
    <g id="edge10" class="edge link&#45;class">
      <title>RES_IDLE&#45;&gt;RES_UNFILLED</title>
      <g id="a_edge10">
        <a xlink:title="supplierCannotSupply">
          <path fill="none" stroke="red" d="M410.4,-359.88C481.6,-325.65 634.79,-252 634.79,-252 634.79,-252 634.79,-216 634.79,-216 634.79,-216 497.19,-146.64 426.98,-111.26"/>
          <polygon fill="red" stroke="red" points="428.45,-108.08 417.95,-106.7 425.3,-114.33 428.45,-108.08"/>
        </a>
      </g>
    </g>
    <!-- RES_AWAIT_PICKING&#45;&gt;RES_CANCEL_REQUEST_RECEIVED -->
    <g id="edge24" class="edge link&#45;class">
      <title>RES_AWAIT_PICKING&#45;&gt;RES_CANCEL_REQUEST_RECEIVED</title>
      <g id="a_edge24">
        <a xlink:title="ISO18626Cancel">
          <path fill="none" stroke="purple" d="M188.04,-180.06C196.92,-195.55 205.79,-216 205.79,-216 205.79,-216 205.79,-252 205.79,-252 205.79,-252 161.79,-288 161.79,-288 161.79,-288 161.79,-324 161.79,-324 161.79,-324 257.22,-389.54 306.46,-425.71"/>
          <polygon fill="purple" stroke="purple" points="304.68,-428.74 314.8,-431.88 308.84,-423.12 304.68,-428.74"/>
        </a>
      </g>
    </g>
    <!-- RES_AWAIT_PICKING&#45;&gt;RES_AWAIT_PICKING -->
    <g id="edge16" class="edge link&#45;class">
      <title>RES_AWAIT_PICKING&#45;&gt;RES_AWAIT_PICKING</title>
      <g id="a_edge16">
        <a xlink:title="supplierAddCondition">
          <path fill="none" stroke="purple" d="M253.27,-164.99C264.02,-164.49 271.18,-163.49 271.18,-162 271.18,-161.04 268.24,-160.29 263.3,-159.74"/>
          <polygon fill="purple" stroke="purple" points="263.5,-156.24 253.27,-159.01 262.99,-163.23 263.5,-156.24"/>
        </a>
      </g>
    </g>
    <!-- RES_AWAIT_PICKING&#45;&gt;RES_AWAIT_PICKING -->
    <g id="edge18" class="edge link&#45;class">
      <title>RES_AWAIT_PICKING&#45;&gt;RES_AWAIT_PICKING</title>
      <g id="a_edge18">
        <a xlink:title="supplierCheckInToIll">
          <path fill="none" stroke="purple" d="M253.07,-168.68C273.65,-168.27 289.18,-166.04 289.18,-162 289.18,-158.65 278.53,-156.55 263.18,-155.69"/>
          <polygon fill="purple" stroke="purple" points="263.19,-152.19 253.07,-155.32 262.93,-159.19 263.19,-152.19"/>
        </a>
      </g>
    </g>
    <!-- RES_AWAIT_PICKING&#45;&gt;RES_AWAIT_PICKING -->
    <g id="edge19" class="edge link&#45;class">
      <title>RES_AWAIT_PICKING&#45;&gt;RES_AWAIT_PICKING</title>
      <g id="a_edge19">
        <a xlink:title="supplierCheckInToIllAndSupplierMarkShipped">
          <path fill="none" stroke="purple" d="M253.21,-172.1C282.81,-172.43 307.18,-169.07 307.18,-162 307.18,-155.76 288.19,-152.41 263.37,-151.93"/>
          <polygon fill="purple" stroke="purple" points="263.23,-148.43 253.21,-151.9 263.2,-155.43 263.23,-148.43"/>
        </a>
      </g>
    </g>
    <!-- RES_AWAIT_PICKING&#45;&gt;RES_AWAIT_PICKING -->
    <g id="edge23" class="edge link&#45;class">
      <title>RES_AWAIT_PICKING&#45;&gt;RES_AWAIT_PICKING</title>
      <g id="a_edge23">
        <a xlink:title="ISO18626StatusRequest">
          <path fill="none" stroke="purple" d="M253.23,-175.17C291.45,-176.8 325.18,-172.41 325.18,-162 325.18,-152.53 297.24,-148.04 263.4,-148.54"/>
          <polygon fill="purple" stroke="purple" points="263.13,-145.04 253.23,-148.83 263.33,-152.04 263.13,-145.04"/>
        </a>
      </g>
    </g>
    <!-- RES_AWAIT_PICKING&#45;&gt;RES_PENDING_CONDITIONAL_ANSWER -->
    <g id="edge15" class="edge link&#45;class">
      <title>RES_AWAIT_PICKING&#45;&gt;RES_PENDING_CONDITIONAL_ANSWER</title>
      <g id="a_edge15">
        <a xlink:title="supplierAddCondition&#45;holding">
          <path fill="none" stroke="purple" d="M204.46,-180.06C228.24,-195.55 256.79,-216 256.79,-216 256.79,-216 276.29,-252.15 288.1,-278.37"/>
          <polygon fill="purple" stroke="purple" points="285.01,-280.05 292.19,-287.84 291.44,-277.27 285.01,-280.05"/>
        </a>
      </g>
    </g>
    <!-- RES_AWAIT_PICKING&#45;&gt;RES_AWAIT_SHIP -->
    <g id="edge17" class="edge link&#45;class">
      <title>RES_AWAIT_PICKING&#45;&gt;RES_AWAIT_SHIP</title>
      <g id="a_edge17">
        <a xlink:title="supplierCheckInToIll">
          <path fill="none" stroke="purple" d="M147.51,-180.19C133.64,-189.27 116.43,-200.53 101.47,-210.31"/>
          <polygon fill="purple" stroke="purple" points="99.42,-207.47 92.97,-215.88 103.25,-213.33 99.42,-207.47"/>
        </a>
      </g>
    </g>
    <!-- RES_AWAIT_PICKING&#45;&gt;RES_AWAIT_SHIP -->
    <g id="edge20" class="edge link&#45;class">
      <title>RES_AWAIT_PICKING&#45;&gt;RES_AWAIT_SHIP</title>
      <g id="a_edge20">
        <a xlink:title="supplierCheckInToIllAndSupplierMarkShipped&#45;checkedIn">
          <path fill="none" stroke="purple" d="M159.32,-180.19C147.22,-189.35 130.12,-200.74 113.74,-210.59"/>
          <polygon fill="purple" stroke="purple" points="111.6,-207.79 104.76,-215.88 115.15,-213.82 111.6,-207.79"/>
        </a>
      </g>
    </g>
    <!-- RES_ITEM_SHIPPED -->
    <g id="node8" class="node">
      <title>RES_ITEM_SHIPPED</title>
      <polygon fill="none" stroke="black" points="214.17,-108 63.41,-108 63.41,-72 214.17,-72 214.17,-108"/>
      <text text-anchor="middle" x="138.79" y="-85.8" font-family="arial" font-size="14.00">RES_ITEM_SHIPPED</text>
    </g>
    <!-- RES_AWAIT_PICKING&#45;&gt;RES_ITEM_SHIPPED -->
    <g id="edge21" class="edge link&#45;class">
      <title>RES_AWAIT_PICKING&#45;&gt;RES_ITEM_SHIPPED</title>
      <g id="a_edge21">
        <a xlink:title="supplierCheckInToIllAndSupplierMarkShipped">
          <path fill="none" stroke="purple" d="M165.14,-143.7C161.15,-135.73 156.34,-126.1 151.92,-117.26"/>
          <polygon fill="purple" stroke="purple" points="154.95,-115.48 147.34,-108.1 148.68,-118.61 154.95,-115.48"/>
        </a>
      </g>
    </g>
    <!-- RES_AWAIT_PICKING&#45;&gt;RES_UNFILLED -->
    <g id="edge22" class="edge link&#45;class">
      <title>RES_AWAIT_PICKING&#45;&gt;RES_UNFILLED</title>
      <g id="a_edge22">
        <a xlink:title="supplierCannotSupply">
          <path fill="none" stroke="red" d="M225.62,-143.97C258.32,-133.22 300.45,-119.37 333.44,-108.53"/>
          <polygon fill="red" stroke="red" points="334.95,-111.72 343.36,-105.27 332.77,-105.07 334.95,-111.72"/>
        </a>
      </g>
    </g>
    <!-- RES_PENDING_CONDITIONAL_ANSWER&#45;&gt;RES_CANCEL_REQUEST_RECEIVED -->
    <g id="edge31" class="edge link&#45;class">
      <title>RES_PENDING_CONDITIONAL_ANSWER&#45;&gt;RES_CANCEL_REQUEST_RECEIVED</title>
      <g id="a_edge31">
        <a xlink:title="ISO18626Cancel">
          <path fill="none" stroke="purple" d="M305.1,-324.19C314.31,-348.42 326.81,-392.89 332.74,-421.68"/>
          <polygon fill="purple" stroke="purple" points="329.37,-422.7 334.67,-431.87 336.25,-421.39 329.37,-422.7"/>
        </a>
      </g>
    </g>
    <!-- RES_PENDING_CONDITIONAL_ANSWER&#45;&gt;RES_IDLE -->
    <g id="edge30" class="edge link&#45;class">
      <title>RES_PENDING_CONDITIONAL_ANSWER&#45;&gt;RES_IDLE</title>
      <g id="a_edge30">
        <a xlink:title="supplierMarkConditionsAgreed&#45;saved">
          <path fill="none" stroke="purple" d="M320.99,-324.1C331.62,-332.72 343.76,-343.32 353.89,-352.76"/>
          <polygon fill="purple" stroke="purple" points="351.52,-355.34 361.18,-359.7 356.35,-350.27 351.52,-355.34"/>
        </a>
      </g>
    </g>
    <!-- RES_PENDING_CONDITIONAL_ANSWER&#45;&gt;RES_AWAIT_PICKING -->
    <g id="edge28" class="edge link&#45;class">
      <title>RES_PENDING_CONDITIONAL_ANSWER&#45;&gt;RES_AWAIT_PICKING</title>
      <g id="a_edge28">
        <a xlink:title="supplierMarkConditionsAgreed&#45;saved">
          <path fill="none" stroke="purple" d="M280.88,-287.84C263.59,-261.98 238.79,-216 238.79,-216 238.79,-216 217.32,-200.62 198.92,-186.44"/>
          <polygon fill="purple" stroke="purple" points="200.8,-183.47 190.77,-180.06 196.49,-188.98 200.8,-183.47"/>
        </a>
      </g>
    </g>
    <!-- RES_PENDING_CONDITIONAL_ANSWER&#45;&gt;RES_PENDING_CONDITIONAL_ANSWER -->
    <g id="edge26" class="edge link&#45;class">
      <title>RES_PENDING_CONDITIONAL_ANSWER&#45;&gt;RES_PENDING_CONDITIONAL_ANSWER</title>
      <g id="a_edge26">
        <a xlink:title="ISO18626StatusRequest">
          <path fill="none" stroke="purple" d="M430.17,-316.33C441.03,-314.08 447.77,-310.64 447.77,-306 447.77,-302.95 444.87,-300.42 439.8,-298.41"/>
          <polygon fill="purple" stroke="purple" points="440.75,-295.04 430.17,-295.67 438.83,-301.77 440.75,-295.04"/>
        </a>
      </g>
    </g>
    <!-- RES_PENDING_CONDITIONAL_ANSWER&#45;&gt;RES_NEW_AWAIT_PULL_SLIP -->
    <g id="edge27" class="edge link&#45;class">
      <title>RES_PENDING_CONDITIONAL_ANSWER&#45;&gt;RES_NEW_AWAIT_PULL_SLIP</title>
      <g id="a_edge27">
        <a xlink:title="supplierMarkConditionsAgreed&#45;saved">
          <path fill="none" stroke="purple" d="M336.13,-287.88C361.52,-278.09 394.7,-265.77 423.31,-255.47"/>
          <polygon fill="purple" stroke="purple" points="424.58,-258.74 432.81,-252.07 422.22,-252.15 424.58,-258.74"/>
        </a>
      </g>
    </g>
    <!-- RES_PENDING_CONDITIONAL_ANSWER&#45;&gt;RES_AWAIT_SHIP -->
    <g id="edge29" class="edge link&#45;class">
      <title>RES_PENDING_CONDITIONAL_ANSWER&#45;&gt;RES_AWAIT_SHIP</title>
      <g id="a_edge29">
        <a xlink:title="supplierMarkConditionsAgreed&#45;saved">
          <path fill="none" stroke="purple" d="M234.18,-287.97C200.72,-278.06 159.59,-265.51 126.44,-255.12"/>
          <polygon fill="purple" stroke="purple" points="127.46,-251.77 116.87,-252.11 125.36,-258.45 127.46,-251.77"/>
        </a>
      </g>
    </g>
    <!-- RES_PENDING_CONDITIONAL_ANSWER&#45;&gt;RES_UNFILLED -->
    <g id="edge25" class="edge link&#45;class">
      <title>RES_PENDING_CONDITIONAL_ANSWER&#45;&gt;RES_UNFILLED</title>
      <g id="a_edge25">
        <a xlink:title="supplierCannotSupply">
          <path fill="none" stroke="red" d="M303.08,-287.85C318.96,-250.5 356.76,-161.63 375.65,-117.21"/>
          <polygon fill="red" stroke="red" points="378.9,-118.51 379.59,-107.94 372.45,-115.77 378.9,-118.51"/>
        </a>
      </g>
    </g>
    <!-- RES_NEW_AWAIT_PULL_SLIP&#45;&gt;RES_CANCEL_REQUEST_RECEIVED -->
    <g id="edge37" class="edge link&#45;class">
      <title>RES_NEW_AWAIT_PULL_SLIP&#45;&gt;RES_CANCEL_REQUEST_RECEIVED</title>
      <g id="a_edge37">
        <a xlink:title="ISO18626Cancel">
          <path fill="none" stroke="purple" d="M490.45,-252.16C493.79,-278.02 493.79,-324 493.79,-324 493.79,-324 452.79,-396 452.79,-396 452.79,-396 417.96,-412.94 386.05,-427.66"/>
          <polygon fill="purple" stroke="purple" points="384.35,-424.59 376.72,-431.94 387.27,-430.95 384.35,-424.59"/>
        </a>
      </g>
    </g>
    <!-- RES_NEW_AWAIT_PULL_SLIP&#45;&gt;RES_AWAIT_PICKING -->
    <g id="edge34" class="edge link&#45;class">
      <title>RES_NEW_AWAIT_PULL_SLIP&#45;&gt;RES_AWAIT_PICKING</title>
      <g id="a_edge34">
        <a xlink:title="supplierPrintPullSlip">
          <path fill="none" stroke="purple" d="M409.11,-215.97C363.87,-205.78 306.27,-192.82 259.38,-182.26"/>
          <polygon fill="purple" stroke="purple" points="260.07,-178.83 249.54,-180.05 258.53,-185.66 260.07,-178.83"/>
        </a>
      </g>
    </g>
    <!-- RES_NEW_AWAIT_PULL_SLIP&#45;&gt;RES_PENDING_CONDITIONAL_ANSWER -->
    <g id="edge32" class="edge link&#45;class">
      <title>RES_NEW_AWAIT_PULL_SLIP&#45;&gt;RES_PENDING_CONDITIONAL_ANSWER</title>
      <g id="a_edge32">
        <a xlink:title="supplierAddCondition&#45;holding">
          <path fill="none" stroke="purple" d="M444.49,-252.11C419.07,-261.9 385.83,-274.25 357.19,-284.56"/>
          <polygon fill="purple" stroke="purple" points="355.91,-281.3 347.67,-287.97 358.27,-287.89 355.91,-281.3"/>
        </a>
      </g>
    </g>
    <!-- RES_NEW_AWAIT_PULL_SLIP&#45;&gt;RES_NEW_AWAIT_PULL_SLIP -->
    <g id="edge33" class="edge link&#45;class">
      <title>RES_NEW_AWAIT_PULL_SLIP&#45;&gt;RES_NEW_AWAIT_PULL_SLIP</title>
      <g id="a_edge33">
        <a xlink:title="supplierAddCondition">
          <path fill="none" stroke="purple" d="M589.41,-239.59C600.36,-238.5 607.37,-236.64 607.37,-234 607.37,-232.31 604.5,-230.94 599.55,-229.88"/>
          <polygon fill="purple" stroke="purple" points="599.81,-226.39 589.41,-228.41 598.8,-233.31 599.81,-226.39"/>
        </a>
      </g>
    </g>
    <!-- RES_NEW_AWAIT_PULL_SLIP&#45;&gt;RES_NEW_AWAIT_PULL_SLIP -->
    <g id="edge36" class="edge link&#45;class">
      <title>RES_NEW_AWAIT_PULL_SLIP&#45;&gt;RES_NEW_AWAIT_PULL_SLIP</title>
      <g id="a_edge36">
        <a xlink:title="ISO18626StatusRequest">
          <path fill="none" stroke="purple" d="M589.63,-246.94C610.5,-245.49 625.37,-241.17 625.37,-234 625.37,-228.06 615.17,-224.08 599.81,-222.06"/>
          <polygon fill="purple" stroke="purple" points="599.93,-218.56 589.63,-221.06 599.24,-225.52 599.93,-218.56"/>
        </a>
      </g>
    </g>
    <!-- RES_NEW_AWAIT_PULL_SLIP&#45;&gt;RES_UNFILLED -->
    <g id="edge35" class="edge link&#45;class">
      <title>RES_NEW_AWAIT_PULL_SLIP&#45;&gt;RES_UNFILLED</title>
      <g id="a_edge35">
        <a xlink:title="supplierCannotSupply">
          <path fill="none" stroke="red" d="M472.97,-215.87C455.9,-191.14 424.23,-145.24 404.4,-116.51"/>
          <polygon fill="red" stroke="red" points="407.21,-114.43 398.65,-108.19 401.45,-118.41 407.21,-114.43"/>
        </a>
      </g>
    </g>
    <!-- RES_AWAIT_SHIP&#45;&gt;RES_CANCEL_REQUEST_RECEIVED -->
    <g id="edge44" class="edge link&#45;class">
      <title>RES_AWAIT_SHIP&#45;&gt;RES_CANCEL_REQUEST_RECEIVED</title>
      <g id="a_edge44">
        <a xlink:title="ISO18626Cancel">
          <path fill="none" stroke="purple" d="M74.98,-252.23C88.56,-293.76 110.79,-396 110.79,-396 110.79,-396 192.11,-414.5 256.81,-429.64"/>
          <polygon fill="purple" stroke="purple" points="256.09,-433.06 266.63,-431.94 257.69,-426.25 256.09,-433.06"/>
        </a>
      </g>
    </g>
    <!-- RES_AWAIT_SHIP&#45;&gt;RES_AWAIT_PICKING -->
    <g id="edge41" class="edge link&#45;class">
      <title>RES_AWAIT_SHIP&#45;&gt;RES_AWAIT_PICKING</title>
      <g id="a_edge41">
        <a xlink:title="supplierCheckInToIll">
          <path fill="none" stroke="purple" d="M81.41,-215.7C93.51,-206.54 110.57,-195.19 126.9,-185.38"/>
          <polygon fill="purple" stroke="purple" points="129.01,-188.19 135.85,-180.1 125.46,-182.16 129.01,-188.19"/>
        </a>
      </g>
    </g>
    <!-- RES_AWAIT_SHIP&#45;&gt;RES_PENDING_CONDITIONAL_ANSWER -->
    <g id="edge38" class="edge link&#45;class">
      <title>RES_AWAIT_SHIP&#45;&gt;RES_PENDING_CONDITIONAL_ANSWER</title>
      <g id="a_edge38">
        <a xlink:title="supplierAddCondition&#45;holding">
          <path fill="none" stroke="purple" d="M128.66,-252.11C162.16,-262.03 203.29,-274.58 236.4,-284.96"/>
          <polygon fill="purple" stroke="purple" points="235.36,-288.3 245.95,-287.97 237.46,-281.63 235.36,-288.3"/>
        </a>
      </g>
    </g>
    <!-- RES_AWAIT_SHIP&#45;&gt;RES_AWAIT_SHIP -->
    <g id="edge39" class="edge link&#45;class">
      <title>RES_AWAIT_SHIP&#45;&gt;RES_AWAIT_SHIP</title>
      <g id="a_edge39">
        <a xlink:title="supplierAddCondition">
          <path fill="none" stroke="purple" d="M133.61,-238.14C144.28,-237.54 151.58,-236.16 151.58,-234 151.58,-232.62 148.58,-231.56 143.63,-230.81"/>
          <polygon fill="purple" stroke="purple" points="143.9,-227.32 133.61,-229.86 143.24,-234.29 143.9,-227.32"/>
        </a>
      </g>
    </g>
    <!-- RES_AWAIT_SHIP&#45;&gt;RES_AWAIT_SHIP -->
    <g id="edge40" class="edge link&#45;class">
      <title>RES_AWAIT_SHIP&#45;&gt;RES_AWAIT_SHIP</title>
      <g id="a_edge40">
        <a xlink:title="supplierCheckInToIll">
          <path fill="none" stroke="purple" d="M133.52,-242.99C153.76,-242.76 169.58,-239.77 169.58,-234 169.58,-229.27 158.94,-226.4 143.94,-225.4"/>
          <polygon fill="purple" stroke="purple" points="143.65,-221.89 133.52,-225.01 143.39,-228.89 143.65,-221.89"/>
        </a>
      </g>
    </g>
    <!-- RES_AWAIT_SHIP&#45;&gt;RES_AWAIT_SHIP -->
    <g id="edge42" class="edge link&#45;class">
      <title>RES_AWAIT_SHIP&#45;&gt;RES_AWAIT_SHIP</title>
      <g id="a_edge42">
        <a xlink:title="ISO18626StatusRequest">
          <path fill="none" stroke="purple" d="M133.56,-247.33C162.63,-248.46 187.58,-244.02 187.58,-234 187.58,-225.15 168.13,-220.66 143.58,-220.5"/>
          <polygon fill="purple" stroke="purple" points="143.5,-217 133.56,-220.67 143.62,-224 143.5,-217"/>
        </a>
      </g>
    </g>
    <!-- RES_AWAIT_SHIP&#45;&gt;RES_ITEM_SHIPPED -->
    <g id="edge43" class="edge link&#45;class">
      <title>RES_AWAIT_SHIP&#45;&gt;RES_ITEM_SHIPPED</title>
      <g id="a_edge43">
        <a xlink:title="supplierMarkShipped">
          <path fill="none" stroke="purple" d="M70.45,-215.84C75.97,-189.98 85.79,-144 85.79,-144 85.79,-144 100.62,-129.17 114.59,-115.2"/>
          <polygon fill="purple" stroke="purple" points="117.13,-117.61 121.73,-108.06 112.18,-112.66 117.13,-117.61"/>
        </a>
      </g>
    </g>
    <!-- RES_ITEM_SHIPPED&#45;&gt;RES_ITEM_SHIPPED -->
    <g id="edge45" class="edge link&#45;class">
      <title>RES_ITEM_SHIPPED&#45;&gt;RES_ITEM_SHIPPED</title>
      <g id="a_edge45">
        <a xlink:title="ISO18626StatusRequest">
          <path fill="none" stroke="purple" d="M214.11,-96.06C224.8,-95.08 231.98,-93.06 231.98,-90 231.98,-88.04 229.03,-86.51 224.11,-85.4"/>
          <polygon fill="purple" stroke="purple" points="224.51,-81.92 214.11,-83.94 223.5,-88.85 224.51,-81.92"/>
        </a>
      </g>
    </g>
    <!-- RES_ITEM_SHIPPED&#45;&gt;RES_ITEM_SHIPPED -->
    <g id="edge46" class="edge link&#45;class">
      <title>RES_ITEM_SHIPPED&#45;&gt;RES_ITEM_SHIPPED</title>
      <g id="a_edge46">
        <a xlink:title="ISO18626Received">
          <path fill="none" stroke="purple" d="M214.14,-103.4C234.5,-102.69 249.98,-98.23 249.98,-90 249.98,-83.19 239.36,-78.95 224.15,-77.3"/>
          <polygon fill="purple" stroke="purple" points="224.36,-73.8 214.14,-76.6 223.88,-80.79 224.36,-73.8"/>
        </a>
      </g>
    </g>
    <!-- RES_COMPLETE -->
    <g id="node9" class="node">
      <title>RES_COMPLETE</title>
      <ellipse fill="none" stroke="red" cx="138.79" cy="-18" rx="80.61" ry="18"/>
      <text text-anchor="middle" x="138.79" y="-13.8" font-family="arial" font-size="14.00">RES_COMPLETE</text>
    </g>
    <!-- RES_ITEM_SHIPPED&#45;&gt;RES_COMPLETE -->
    <g id="edge47" class="edge link&#45;class">
      <title>RES_ITEM_SHIPPED&#45;&gt;RES_COMPLETE</title>
      <g id="a_edge47">
        <a xlink:title="ISO18626Received&#45;copy">
          <path fill="none" stroke="red" d="M138.79,-71.7C138.79,-63.98 138.79,-54.71 138.79,-46.11"/>
          <polygon fill="red" stroke="red" points="142.29,-46.1 138.79,-36.1 135.29,-46.1 142.29,-46.1"/>
        </a>
      </g>
    </g>
  </g>
</svg>